<svg xmlns="http://www.w3.org/2000/svg" width="128" height="128" viewBox="0 0 128 128">
  <!-- Handcontroller im Stil des CR100: Front + 4-px-Profil -->
  <rect x="28" y="14" width="72" height="104" rx="16" fill="#9a9996"/>
  <rect x="28" y="10" width="72" height="104" rx="16" fill="#f6f5f4"/>
  <!-- Display mit laufendem Titel -->
  <rect x="36" y="20" width="56" height="46" rx="4" fill="#241f31"/>
  <rect x="40" y="24" width="24" height="24" rx="2" fill="#e66100"/>
  <circle cx="52" cy="36" r="7" fill="#ffa348"/>
  <circle cx="52" cy="36" r="2" fill="#e66100"/>
  <rect x="68" y="26" width="18" height="4" rx="1" fill="#deddda"/>
  <rect x="68" y="34" width="12" height="4" rx="1" fill="#77767b"/>
  <rect x="40" y="56" width="48" height="4" rx="2" fill="#5e5c64"/>
  <rect x="40" y="56" width="28" height="4" rx="2" fill="#3584e4"/>
  <!-- Scrollrad mit Play-Taste -->
  <circle cx="64" cy="90" r="18" fill="#deddda"/>
  <circle cx="64" cy="90" r="9" fill="#3584e4"/>
  <path d="M 61 85 L 69 90 L 61 95 Z" fill="#ffffff"/>
</svg>
