<svg xmlns="http://www.w3.org/2000/svg" width="128" height="128" viewBox="0 0 128 128">
  <!-- Ein breiter Lautsprecher mit zwei Membranen, Funkwellen darüber -->
  <rect x="12" y="56" width="104" height="58" rx="16" fill="#3d3846"/>
  <rect x="12" y="52" width="104" height="58" rx="16" fill="#5e5c64"/>
  <circle cx="39" cy="81" r="19" fill="#241f31"/>
  <circle cx="39" cy="81" r="13" fill="#77767b"/>
  <circle cx="39" cy="81" r="5" fill="#c0bfbc"/>
  <circle cx="89" cy="81" r="19" fill="#241f31"/>
  <circle cx="89" cy="81" r="13" fill="#77767b"/>
  <circle cx="89" cy="81" r="5" fill="#c0bfbc"/>
  <circle cx="64" cy="81" r="4" fill="#241f31"/>
  <g fill="none" stroke="#3584e4" stroke-width="5" stroke-linecap="round">
    <path d="M 58.34 40.34 A 8 8 0 0 1 69.66 40.34"/>
    <path d="M 52.69 34.69 A 16 16 0 0 1 75.31 34.69"/>
    <path d="M 47.03 29.03 A 24 24 0 0 1 80.97 29.03"/>
  </g>
  <circle cx="64" cy="46" r="3.5" fill="#3584e4"/>
</svg>
